<?xml version="1.0" encoding="utf-8"?>
<!-- Generator: Adobe Illustrator 23.0.0, SVG Export Plug-In . SVG Version: 6.00 Build 0)  -->
<svg version="1.1" id="Capa_1" xmlns="http://www.w3.org/2000/svg" xmlns:xlink="http://www.w3.org/1999/xlink" x="0px" y="0px"
	 viewBox="0 0 473.3 473.3" style="enable-background:new 0 0 473.3 473.3;" xml:space="preserve">
<style type="text/css">
	.st0{fill-rule:evenodd;clip-rule:evenodd;fill:#363A3E;}
</style>
<g>
	<path class="st0" d="M236.7,473.3C106.2,473.3,0,367.1,0,236.6C0,106.2,106.2,0,236.7,0s236.7,106.2,236.7,236.6
		C473.3,367.1,367.2,473.3,236.7,473.3z M425.8,267.4c-6.5-2-59.3-17.8-119.3-8.2c25.1,68.8,35.3,124.9,37.2,136.6
		C386.7,366.7,417.3,320.7,425.8,267.4z M311.5,413.3c-2.9-16.8-14-75.4-40.9-145.3c-0.4,0.1-0.8,0.3-1.3,0.4
		c-108,37.6-146.8,112.6-150.3,119.6c32.5,25.3,73.3,40.4,117.6,40.4C263.2,428.5,288.5,423.1,311.5,413.3z M94.3,365
		c4.3-7.4,56.9-94.5,155.7-126.4c2.5-0.8,5-1.6,7.5-2.3c-4.8-10.9-10-21.8-15.5-32.5c-95.7,28.6-188.5,27.4-196.9,27.3
		c-0.1,1.9-0.1,3.9-0.1,5.9C45.1,286.2,63.8,331.1,94.3,365z M49.1,197.7c8.6,0.1,87.5,0.4,177.1-23.3c-31.7-56.4-66-103.9-71-110.8
		C101.6,88.9,61.6,138.3,49.1,197.7z M191.8,50.7c5.3,7.1,40.1,54.5,71.5,112.1c68.1-25.6,96.9-64.3,100.4-69.2
		c-33.8-30-78.3-48.3-127-48.3C221.2,45.4,206.2,47.3,191.8,50.7z M384.9,115.8c-4,5.5-36.1,46.6-107,75.5
		c4.5,9.1,8.7,18.4,12.7,27.8c1.4,3.3,2.8,6.6,4.1,9.9c63.7-8,127.1,4.8,133.4,6.2C427.8,189.9,411.6,148.4,384.9,115.8z"/>
</g>
</svg>
